<svg xmlns="http://www.w3.org/2000/svg" viewBox="0 0 64 80" x="0px" y="0px"><path d="M39.02246,29.38867a15.8701,15.8701,0,0,1-3.03955-6.23047,19.12435,19.12435,0,0,1-.5166-3.6416,1,1,0,0,0-1.70264-.66992c-1.88916,1.87012-3.46435,6.01758-4.22949,8.30176a23.93729,23.93729,0,0,0-3.04492-2.02051,1.00014,1.00014,0,0,0-1.48487.78027A20.787,20.787,0,0,1,23.71191,31.501a8.90379,8.90379,0,0,0-.71093,3.63476,9.1009,9.1009,0,0,0,8.67773,8.85938L32.001,44a8.987,8.987,0,0,0,7.02148-14.61133ZM36.9502,39.9502A6.94559,6.94559,0,0,1,32.01123,42l-.26709-.00391A7.07522,7.07522,0,0,1,25.001,35.10645a6.90527,6.90527,0,0,1,.55175-2.82325,20.7635,20.7635,0,0,0,1.24561-4.63379,12.21012,12.21012,0,0,1,2.31445,1.81153.98834.98834,0,0,0,.959.53613.99923.99923,0,0,0,.88965-.72266,38.52564,38.52564,0,0,1,2.79638-7.00781q.11793.67383.27979,1.35449a17.8711,17.8711,0,0,0,3.42578,7.01953,6.97915,6.97915,0,0,1-.51318,9.30958Z"/><path d="M56,43a.99974.99974,0,0,0-1-1H42.94525a12.95017,12.95017,0,0,0-.80511-15.11719A11.84944,11.84944,0,0,1,39.874,22.23145c-2.11181-8.8711,4.29688-12.19825,4.56739-12.334a1.00015,1.00015,0,0,0-.51807-1.89453c-10.3418.7959-14.78857,9.627-15.7168,14.08887C23.0376,18.13379,20.3125,18.002,20.00488,18H20a1,1,0,0,0-.707,1.707c1.41162,1.41113,1.99219,3.61231,1.72558,6.543a12.19162,12.19162,0,0,1-.98779,3.68555A12.78476,12.78476,0,0,0,21.10822,42H9a.99974.99974,0,0,0-1,1v4a.99974.99974,0,0,0,1,1H21.58594l-7.293,7.293a.99962.99962,0,0,0,0,1.41406l3,3a.99963.99963,0,0,0,1.41406,0l10-10a.99962.99962,0,0,0,0-1.41406l-1.07849-1.07849a12.58679,12.58679,0,0,0,3.90515.77673Q31.77027,48,32.00586,48a12.97229,12.97229,0,0,0,4.33209-.752l-1.045,1.045a.99962.99962,0,0,0,0,1.41406l10,10a.99963.99963,0,0,0,1.41406,0l3-3a.99962.99962,0,0,0,0-1.41406L42.41406,48H55a.99974.99974,0,0,0,1-1ZM10,44H22v2H10Zm8,13.58594L16.41406,56,25,47.41406,26.58594,49Zm6-12V45.1676q.11673.09275.2356.18274Zm7.604.40722A11.12043,11.12043,0,0,1,21.00146,35.166a10.877,10.877,0,0,1,.87012-4.44727,14.17332,14.17332,0,0,0,1.13916-4.28809,12.05957,12.05957,0,0,0-.6831-5.66992,26.87309,26.87309,0,0,1,5.47509,3.55762.99873.99873,0,0,0,.92432.17676c.11182-.03516.22656-.06153.34131-.08887l.20508-.05078a.99867.99867,0,0,0,.75049-.90235c.11962-1.79492,2.435-10.14453,10.373-12.73828-1.96045,2.27051-3.86133,6.12891-2.46826,11.9795a13.84409,13.84409,0,0,0,2.65234,5.44043,10.99242,10.99242,0,0,1-8.977,17.85839ZM46,57.58594,37.41406,49,39,47.41406,47.58594,56ZM39.80127,45.38721c.06537-.04932.13422-.09265.19873-.14331v.342ZM54,46H42V44H54Z"/><rect x="32" y="6" width="2" height="2"/><rect x="30" y="10" width="2" height="2"/><rect x="22" y="14" width="2" height="2"/><rect x="42" y="2" width="2" height="2"/><rect x="26" y="2" width="2" height="2"/><rect x="8" y="50" width="4" height="2"/><rect x="12" y="52" width="2" height="2"/><rect x="4" y="56" width="4" height="2"/><rect x="50" y="50" width="4" height="2"/><rect x="56" y="52" width="2" height="2"/><rect x="56" y="60" width="4" height="2"/><rect x="30" y="54" width="2" height="2"/><text x="0" y="79" fill="#000000" font-size="5px" font-weight="bold" font-family="'Helvetica Neue', Helvetica, Arial-Unicode, Arial, Sans-serif"></text><text x="0" y="84" fill="#000000" font-size="5px" font-weight="bold" font-family="'Helvetica Neue', Helvetica, Arial-Unicode, Arial, Sans-serif"></text></svg>