<svg xmlns="http://www.w3.org/2000/svg" viewBox="0 0 64 80" x="0px" y="0px"><g><path fill="#89C559" stroke="#000000" stroke-width="0.5" d="M48.33,44.285A1.73,1.73,0,0,1,49,44.62a2.63,2.63,0,0,1,.939,1.361c.2.7.139,1.448.392,2.134a2.75,2.75,0,0,0,1.314,1.573c1.417.693,2.764-.417,3.363-1.653a6.634,6.634,0,0,0,.493-4.08c-.54-3.108-2.912-5.321-5.23-7.257a9.29,9.29,0,0,0,.156-2.81c-.032-1.152-.083-2.3-.217-3.451a7.941,7.941,0,0,0-.685-2.992,3.816,3.816,0,0,0-2.557-1.571,34.753,34.753,0,0,0-7.352-1.143A5.912,5.912,0,0,0,38.229,24a7.846,7.846,0,0,0,.692-1.086,8.646,8.646,0,0,0,.552-1.365,3.217,3.217,0,0,0,1.361-.092,3.461,3.461,0,0,0,1.994-1.594,4.819,4.819,0,0,0,.15-4.175,4.642,4.642,0,0,0,1.78-1.37c2.507-3.21-.435-7.676-4.264-7.291-.269-1.838-.8-3.759-2.592-4.661-2.086-1.049-4.189.63-6.352.332-1.073-.148-2.054-.769-3.159-.7A3.11,3.11,0,0,0,26.081,3.5a11.741,11.741,0,0,0-1.8,4.96,3.887,3.887,0,0,0-.8-.131,4,4,0,0,0-4.114,3.76.81.81,0,0,0,.214.691,4.447,4.447,0,0,0,2.306,2.482,3.574,3.574,0,0,0-.339.5,3.865,3.865,0,0,0-.43,2.548,3.8,3.8,0,0,0,3.17,2.963,9.449,9.449,0,0,0,.364,1.121,7.8,7.8,0,0,0,2.483,3.3,3.677,3.677,0,0,0-.477.275,3.216,3.216,0,0,0-.986,1.174A7.39,7.39,0,0,0,22.281,30.6c-.4.764-.767,1.527-1.094,2.309a6.14,6.14,0,0,0-.238-.717,21.289,21.289,0,0,0-1.292-2.986,4.651,4.651,0,0,0-2.229-2.186,18.662,18.662,0,0,0-2.671-.758c-.1-.32-.18-.643-.3-.953a4.844,4.844,0,0,0-.794-1.463,1.762,1.762,0,0,0-1.4-.629,1.229,1.229,0,0,0-.765.325,1.142,1.142,0,0,0-.309.828c-.007.468.007.938.02,1.407-.127.01-.256.007-.382.027A3.029,3.029,0,0,0,8.51,27.744c-.8,1.918-.309,4.734,1.589,5.823a12.234,12.234,0,0,0,2.878,1.03,2.432,2.432,0,0,0-.827,1.4,2.268,2.268,0,0,0,.64,2.095l.008.005A5.285,5.285,0,0,0,18.83,44.9a2.331,2.331,0,0,0,1.4-.849c.016-.009.035-.008.05-.018a7.267,7.267,0,0,0,1.953-1.856l1.837-1.217c-.048.7-.1,1.4-.13,2.094a3.645,3.645,0,0,0,.457,2.437,1.971,1.971,0,0,0,.19.214,5.337,5.337,0,0,1-.066.816,17.361,17.361,0,0,0-3.5-.135,1.028,1.028,0,0,0-.964.734,17.511,17.511,0,0,0-.418,6.306c-1.578,1.817-4.092,5.187-2.051,6.982,1.108.975,3.152,1.067,4.543,1.271a8.537,8.537,0,0,0,4.94-.391c2.274-1.052,3.577-3.317,5.533-4.771.576,1.056,1.148,2.116,1.746,3.159A3.434,3.434,0,0,0,36.721,61.6a17.613,17.613,0,0,0,4.041.022,11.2,11.2,0,0,0,3.844-.436c2.553-1.1,1.033-4.533.452-6.449q-.678-2.236-1.566-4.4-.358-.876-.747-1.741a4.8,4.8,0,0,1-.315-2.366,1.666,1.666,0,0,0,.752-1.065,4.356,4.356,0,0,0,.074-.521,3.691,3.691,0,0,0,.567,2.07,2.526,2.526,0,0,0,3.495.863,2.154,2.154,0,0,0,.935-1.709,4.729,4.729,0,0,0-.093-1c-.021-.132-.145-.494-.078-.613C48.048,44.318,48.167,44.254,48.33,44.285Zm-.977-16.2a1.055,1.055,0,0,1,.6.836,16.946,16.946,0,0,1,.389,3.061c.067,1.059.1,2.124.111,3.185.008.853-.1,1.465-.954,1.8a5.7,5.7,0,0,1-1.212.319.94.94,0,0,1-.18.017,2.45,2.45,0,0,1-.148-.44A11.777,11.777,0,0,1,45.5,34.1c.072-.017.14-.04.212-.055,1.258-.272.726-2.2-.531-1.929a12.057,12.057,0,0,0-4.021,1.675.989.989,0,0,0-.5.863c.294,2.281.484,4.574.557,6.873.032,1.007-.061,2.055.013,3.057-.087,0-.175.007-.262.007-.271,0-.542,0-.813,0q-.814-.018-1.624-.094c-.675-.062-1.773-.008-2.011-.79a5.347,5.347,0,0,1-.121-1.343q-.035-.87-.06-1.74-.1-3.423-.049-6.848a27.88,27.88,0,0,0,4.054-4.885,3.164,3.164,0,0,0,.565-2.072,31.867,31.867,0,0,1,4.95.836A8.5,8.5,0,0,1,47.353,28.083ZM33.83,54.587a1.017,1.017,0,0,0-1.368-.359,8.994,8.994,0,0,0-1.77,1.311,27.542,27.542,0,0,0-5.187-5.346c.042-.048.081-.1.121-.149.017,0,.032,0,.049,0L25.953,50l.146-.021h.007c.186-.021.372-.045.559-.064q.584-.061,1.17-.092,1.171-.063,2.345-.01c.016,0,.031-.009.046-.009a4.85,4.85,0,0,0,4.144.761,4.666,4.666,0,0,0,1.913-1.077c1.559-.059,3.115-.1,4.671-.009.128.283.25.568.372.852a30.281,30.281,0,0,0-6.917,5.305Zm-7.074-8.169c.6.022,1.246.068,1.876.052a3.971,3.971,0,0,0,.173,1.326q-1.219.02-2.433.155a13.032,13.032,0,0,0,.2-1.544C26.63,46.411,26.693,46.416,26.756,46.418Zm.681-18.383a1.14,1.14,0,0,1,.3-.391,6.793,6.793,0,0,0,2.945,2.338.5.5,0,0,0,.615-.349.515.515,0,0,0-.349-.615l-.027-.011L30.9,29l-.085-.038c-.077-.036-.154-.073-.23-.112q-.218-.112-.425-.241t-.386-.26l-.093-.069-.008,0-.02-.017c-.066-.054-.132-.108-.2-.164a6.216,6.216,0,0,1-.669-.679c-.045-.053-.089-.108-.132-.163l-.026-.034a8.541,8.541,0,0,1,1.163-.191c.017,0,.032-.01.049-.013a8.023,8.023,0,0,0,6.839-1.449c.241.071.507.149.776.245a14.229,14.229,0,0,1-5.111,4.633c-.567.3-.063,1.167.5.863a15.2,15.2,0,0,0,5.508-5.052,1.6,1.6,0,0,1,.517.556c.227.44-.07.8-.318,1.17-.315.474-.651.937-1,1.388a28.679,28.679,0,0,1-2.071,2.389A8.027,8.027,0,0,1,33.1,33.763a2.385,2.385,0,0,1-2.4-.771,13.951,13.951,0,0,1-2.125-2.24C28.094,30.112,27.055,28.9,27.437,28.035Zm7.7,19.774c-.034.04-.068.08-.1.118a3,3,0,0,1-.3.277l-.017.01c-.064.042-.126.085-.192.125a3.544,3.544,0,0,1-.367.191c-.032.008-.191.068-.233.081a4.032,4.032,0,0,1-.4.1c-.031.006-.108.014-.127.017l-.109.008a3.812,3.812,0,0,1-.478,0l-.132-.013c-.024-.005-.067-.012-.081-.016-.141-.036-.282-.064-.421-.108-.074-.024-.148-.049-.22-.078l-.034-.016a4.172,4.172,0,0,1-.417-.236c-.038-.025-.076-.052-.113-.079-.011-.014-.131-.117-.135-.12-.046-.044-.091-.089-.135-.136-.016-.017-.088-.106-.108-.127a3.316,3.316,0,0,1-.22-.366l-.017-.032c-.032-.084-.06-.168-.085-.254s-.039-.152-.054-.228c0-.025-.008-.052-.011-.076-.009-.167-.005-.328,0-.495v0l0-.008c.028-.087.041-.181.068-.269l.033-.094c.024-.043.1-.192.114-.217l0-.005c.017-.011.037-.009.054-.021a2.958,2.958,0,0,1,.375-.232.217.217,0,0,0,.035-.021l.039-.012c.062-.02.123-.041.186-.06.127-.037.257-.06.385-.089l.052-.012.029,0c.084-.01.167-.018.251-.024a10.7,10.7,0,0,1,1.919-.009l.019,0,.028.006c.085.016.17.033.255.055.061.017.356.134.248.08.055.028.11.058.164.09l.113.081.034.032c.054.056.106.123.164.174h0c.005.01,0,.007.01.022.025.046.057.091.083.137s.086.2.089.2c.029.093.055.186.083.28.006.023.013.062.018.092s.008.086.01.129c0,.093,0,.184-.006.275,0-.039.011.026,0,.072l0,.011v0c-.011.05-.02.1-.032.149-.016.067-.037.131-.057.2l-.024.063c-.025.047-.066.128-.066.126-.044.08-.094.155-.143.232Zm-.02.025Zm-3.147.69Zm.686-5.264a8.1,8.1,0,0,0-1.311.149c0-.7-.064-1.4-.069-1.953l-.01-1.145a2.469,2.469,0,0,0,.389.313,2.088,2.088,0,0,0,2.534-.253,1.847,1.847,0,0,0,.14-.167v.045c.027,1.017.024,2.047.119,3.06A10.253,10.253,0,0,0,32.657,43.26Zm-.966-4.67c.033-.07.073-.135.113-.2l.011-.022s0,0,0,0a1.568,1.568,0,0,1,.108-.122c.022-.023.044-.045.067-.067s.047-.043.071-.064q.061-.05.024-.021c-.051.041.074-.052.066-.047.04-.027.081-.052.123-.076s.084-.046.127-.068a.11.11,0,0,0,.026-.015l.032-.008a1.921,1.921,0,0,1,.261-.067h.019l.11,0a.423.423,0,0,0,.048.023,2.053,2.053,0,0,1,.232.054c.043.012.085.028.127.042l.006,0c.057.03.116.058.171.092.023.015.045.032.068.046l.042.037c.042.039.081.082.12.125.016.024.032.047.047.071a1.638,1.638,0,0,1,.08.149c.009.024.018.055.021.064.016.052.029.1.04.156l0,.013,0,.04c0,.051.005.1,0,.152,0,.029-.005.059-.005.087a2.033,2.033,0,0,1-.078.277c-.01.02-.036.08-.05.1-.032.057-.076.11-.106.167l0,0c-.017.018-.033.038-.05.056-.043.047-.091.089-.137.133l-.01.011-.013.006-.066.044c-.034.022-.069.042-.1.061l-.062.03a1.622,1.622,0,0,1-.175.057c-.029.008-.059.015-.088.021l-.078.011a1.524,1.524,0,0,1-.224,0c.022,0,.085.018-.018,0a1.506,1.506,0,0,1-.172-.046l-.067-.026c-.024-.011-.047-.022-.07-.035a2.1,2.1,0,0,1-.216-.134l-.029-.019a.318.318,0,0,0-.028-.028l-.076-.07c-.036-.035-.069-.072-.1-.108a.125.125,0,0,0-.024-.023.16.16,0,0,0-.017-.029,2.067,2.067,0,0,1-.111-.194l-.007-.016c-.013-.043-.028-.086-.039-.13a.846.846,0,0,1-.007-.3c.009-.04.018-.079.03-.118C31.67,38.647,31.685,38.608,31.691,38.59Zm2.6-1.142a2.177,2.177,0,0,0-1.118-.581c-.01,0-.02,0-.03,0a.567.567,0,0,0-.209-.056,2.227,2.227,0,0,0-1.688.7l-.018-1.871a3.525,3.525,0,0,0,1.311.253,3.666,3.666,0,0,0,1.751-.506C34.283,36.074,34.28,36.761,34.286,37.448Zm-3.664,9.361Zm.141.57c-.025-.047-.015-.031,0,0Zm6.658.069c.005-.026.015-.05.019-.077a4.076,4.076,0,0,0,.008-1c.208.029.416.052.622.076a21.916,21.916,0,0,0,2.353.137c-.007.3-.005.592.007.866C39.427,47.41,38.425,47.418,37.421,47.448ZM41.264,18.5l-.019.059s-.06.138-.071.16c-.027.053-.157.35-.217.357.073-.091.087-.109.041-.052-.024.029-.049.058-.074.086-.043.047-.087.092-.133.135-.015.015-.1.081-.124.105l-.06.038c-.063.039-.13.072-.2.106l-.007,0-.031.007c-.072.019-.142.044-.215.06-.021,0-.095.013-.126.018l-.088,0-.083,0a9.065,9.065,0,0,0-.3-3.163c.5-.036,1.012-.092,1.517-.178l.011.021a.493.493,0,0,0,.016.051c.024.07.052.139.076.21.052.155.1.312.135.471.021.086.037.173.054.261l.009.044,0,.042c.011.161.019.32.014.481,0,.064-.009.128-.012.192v.018l-.005.02A4.057,4.057,0,0,1,41.264,18.5ZM27.542,4.942c.334-.59.674-1.066,1.415-.9a22.649,22.649,0,0,0,2.593.65,7.657,7.657,0,0,0,2.586-.18A6.917,6.917,0,0,1,36.545,4c1.594.223,1.879,2.383,2.034,3.654a5.55,5.55,0,0,0-1.117.909q-5.57.155-11.134-.192A11.029,11.029,0,0,1,27.542,4.942ZM26.194,9.361q5.189.325,10.389.215c-.242.3-.487.617-.748.933-1.5,1.821-4.741,1.4-6.85,1.161a2.62,2.62,0,0,1-1.966-1.019c-.285-.355-.543-.729-.85-1.065C26.176,9.511,26.186,9.436,26.194,9.361Zm-1.243,1.847c1.045,1.263,1.768,2.162,3.5,2.4,2.909.4,6.864.72,8.9-1.818,1-1.246,1.77-2.79,3.6-2.814a2.661,2.661,0,0,1,2.594,3.456c-.59,1.66-2.634,1.9-4.144,2-1.958.128-3.923.153-5.884.185a53.273,53.273,0,0,1-6.662-.145c-1.766-.194-4.876-.455-5.448-2.519A1.967,1.967,0,0,1,24.951,11.208ZM23.72,18.922c-.028-.024-.07-.058-.088-.075q-.082-.077-.159-.159-.039-.042-.075-.084c-.047-.056-.034-.038.039.056a.818.818,0,0,1-.128-.186q-.06-.095-.111-.2c-.009-.016-.036-.082-.05-.113s-.028-.088-.031-.1c-.021-.072-.039-.144-.054-.218,0-.014,0-.014-.006-.025a1.08,1.08,0,0,1,0-.176c0-.072,0-.143.008-.216v-.02a4.019,4.019,0,0,1,.111-.418c.01-.027.065-.142.05-.119l.039-.073a2.129,2.129,0,0,1,.16-.269l.03-.036.048-.055c.048-.053.1-.105.151-.155.005-.006.089-.077.133-.117l.059-.04.031-.019a26.452,26.452,0,0,0,.047,2.94C23.852,19.011,23.785,18.968,23.72,18.922Zm2.144-2.573a38.066,38.066,0,0,0,5.573.294c2.018-.014,4.044-.03,6.063-.114a6.893,6.893,0,0,1-.726,6.075,6.154,6.154,0,0,1-4.857,2.684A5.679,5.679,0,0,1,27,22.646C25.855,20.763,25.8,18.508,25.864,16.349Zm-8.3,20.432-.015.009-.134.077-.022.011-.055.018c-.06.017-.118.036-.179.051s-.149.031-.224.043L16.868,37l-.187.014a7.571,7.571,0,0,1-1.388-.025c-.038-.009-.186-.035-.222-.043-.1-.023-.2-.049-.3-.08-.056-.017-.11-.04-.166-.056h0c-.115-.064-.233-.122-.345-.193a.886.886,0,0,0-.145-.05c0-.02-.01-.041-.015-.061,0-.045,0-.1,0-.1l0-.022c.009-.028.02-.056.03-.081.027-.04.092-.147.1-.165-.093.141,0,.026.053-.037.01-.011.03-.028.045-.041l.069-.047c.071-.045.146-.081.22-.119.044-.013.088-.03.131-.043.089-.026.18-.045.271-.064l.028-.005c.066-.006.132-.011.2-.014a5.4,5.4,0,0,1,.7.015q.148.01.3.027l.152.016.038.006a4.47,4.47,0,0,1,.626.144c.04.013.137.056.147.058q.105.056.207.117c0,.006.094.071.133.112.019.019.037.04.055.06l.012.022c.046.081.092.208.041.046.016.049.031.1.048.15l0,.005a.45.45,0,0,1,0,.052c-.005.015-.009.031-.014.047l-.013.02a.115.115,0,0,0-.015.026.159.159,0,0,0-.016.012Zm.008,0c.031-.023.041-.024,0,0Zm-2.519-.994c.143-.029.042,0,0,0Zm2.652.843h0Zm0,.012c0,.006,0,.023,0,.023s0-.011,0-.02Zm-2.445-3.781,1.182.385a.5.5,0,0,0,.615-.349.512.512,0,0,0-.35-.615l-1.432-.468,0-.283,1.336.486a.5.5,0,0,0,.615-.349.512.512,0,0,0-.349-.615l-1.584-.576c.007-.14.015-.337.014-.423.05,0,.109.013.117.015a5.422,5.422,0,0,1,1.037.308,1.781,1.781,0,0,1,1.1,1.534,6.479,6.479,0,0,1,.02,1.088c-.008.169.012.727-.215.724a.505.505,0,0,0-.189.036l-1.926-.577Zm4.516,4.166a.842.842,0,0,0-.112-.127,2.024,2.024,0,0,0,.041-.235,2.183,2.183,0,0,0-.077-.647c.029,0,.059,0,.088,0a2.005,2.005,0,0,1,.868.343,1.935,1.935,0,0,1,.639.731,2.865,2.865,0,0,1,.288,1.016,4.308,4.308,0,0,1-.669,2.593A8.948,8.948,0,0,0,19.772,37.022Zm-1.037-5.016a5.226,5.226,0,0,1,.612,2.023,3.551,3.551,0,0,0-.844.153.843.843,0,0,0-.13-.069l-.023-.007c.016-.029.038-.053.052-.083a3.347,3.347,0,0,0,.188-1.316,5.573,5.573,0,0,0-.111-1.3C18.563,31.61,18.658,31.8,18.735,32.006Zm-6.461-7.785a.093.093,0,0,0,.025-.012.054.054,0,0,0,.025,0c.029,0,.059,0,.088,0l.031.006c.045.013.09.025.134.041l.032.015c.03.016.06.033.089.051a.845.845,0,0,1,.216.183,1.089,1.089,0,0,1,.083.095c.04.053.075.109.11.165a4.985,4.985,0,0,1,.325.662c.078.189.144.382.211.575a11.353,11.353,0,0,0-1.438-.226c-.01-.453-.023-.907-.023-1.36a1.235,1.235,0,0,1,0-.136l.008-.034h0l.029-.017C12.239,24.232,12.256,24.225,12.274,24.221Zm-.075.023h0s-.015.019,0,.007-.006,0,0,0Zm0,0h0l.005-.008C12.188,24.255,12.2,24.242,12.2,24.244Zm-1.308,3.594a1.457,1.457,0,0,1,.552-.126,3.46,3.46,0,0,1,.473,2.055,2.7,2.7,0,0,1-.474,1.347,1.15,1.15,0,0,1-.7.447c-.013-.014-.031-.022-.043-.037a3.119,3.119,0,0,1-.539-2.054C10.178,28.909,10.334,28.113,10.892,27.838Zm.907,4.308c.039-.03.085-.049.123-.082a3.233,3.233,0,0,0,.938-1.857,4.5,4.5,0,0,0-.249-2.374c.171.035.335.072.476.1.937.19,1.855.465,2.781.7a2.376,2.376,0,0,1,1.619.906c.141.207.249.422.371.633A3.59,3.59,0,0,0,16.1,29.2a2.092,2.092,0,0,0-1.171-.11c-.516.168-.629.662-.637,1.143q-.021,1.32-.038,2.642l-1.676-.5C12.338,32.3,12.067,32.232,11.8,32.146Zm6.825,10.725s.006,0,.034-.03C18.51,42.994,18.591,42.893,18.624,42.871Zm.065-.1c-.028.042-.061.089-.064.1a.468.468,0,0,1-.054.028,2.12,2.12,0,0,1-.323.081l-.009,0a.062.062,0,0,0-.018,0c-.048,0-.095.008-.143.01-.111.006-.223.008-.335.005L17.6,42.99s-.1-.009-.147-.012l-.108-.017c-.048-.008-.094-.018-.141-.028q-.164-.036-.324-.084c-.107-.032-.213-.069-.318-.108l-.053-.022-.145-.071a4.9,4.9,0,0,1-.572-.348.606.606,0,0,0-.051-.033.494.494,0,0,0-.047-.046c-.1-.086-.19-.17-.279-.262a3.083,3.083,0,0,1-.646-.987,6.28,6.28,0,0,1-.193-.692c-.006-.028-.011-.057-.016-.085,0,0-.016-.119-.018-.143-.012-.133-.017-.266-.017-.4s.009-.266.02-.4l0-.022c.01-.068.023-.137.037-.2.011-.052.028-.1.041-.156a7.473,7.473,0,0,0,2.149.135,4.157,4.157,0,0,0,1.565-.377,6.3,6.3,0,0,1,.265.756,6.486,6.486,0,0,1,.253,1.376,7.783,7.783,0,0,1,.013.779c0,.13-.012.26-.023.389,0,.056-.01.111-.016.166-.008.071-.008.074,0,.011l-.017.11c-.019.116-.039.232-.066.346C18.741,42.6,18.688,42.752,18.689,42.771Zm4.74-5.3a4.292,4.292,0,0,0-1-2.083c.1-.345.2-.689.311-1.028.062-.178.126-.355.194-.53.036-.092.072-.183.11-.274l.027-.061c.261-.583.555-1.148.851-1.714a8.373,8.373,0,0,1,1.108-1.733,5.635,5.635,0,0,1,.559-.532,8.782,8.782,0,0,0,1.475,2.534,15.266,15.266,0,0,0,2.148,2.268l.061,6.568a29.8,29.8,0,0,1,.023,3.3c-.031.3.044.23-.259.254-.53.042-1.079.009-1.61,0-.334-.006-1.03.107-1.328-.09-.191-.126-.173-.288-.181-.524a29.914,29.914,0,0,1,.159-3.109q.233-3.261.719-6.5a1.032,1.032,0,0,0-.7-1.23,1.007,1.007,0,0,0-1.23.7c-.237,1.573-.424,3.152-.581,4.735l-.819.543A5.685,5.685,0,0,0,23.429,37.468Zm.712,11a2.635,2.635,0,0,1-.855,1.095c-.608.559-1.185,1.16-1.752,1.77,0-.291-.007-.582.01-.874a13.957,13.957,0,0,1,.279-2.112A16.292,16.292,0,0,1,24.141,48.473ZM27.184,58.9a5.817,5.817,0,0,1-4.521.849c-.746-.1-1.489-.243-2.225-.4a4.73,4.73,0,0,1-1.233-.3c-.455-.3-.326-.511-.155-.993.913-2.559,3.247-4.667,5.105-6.562.085-.086.175-.172.266-.257a25.51,25.51,0,0,1,5.2,5.359A19.856,19.856,0,0,1,27.184,58.9ZM43.638,57.07a5.494,5.494,0,0,1,.425,1.914c-.178.776-2.224.592-2.838.621-1.076.05-2.165.113-3.242.09a1.805,1.805,0,0,1-1.728-.716,8.5,8.5,0,0,1-.628-1.13q-.231-.422-.464-.842A29.043,29.043,0,0,1,41.9,51.734c.114.293.234.584.342.879q.563,1.536,1.023,3.106Q43.46,56.391,43.638,57.07Zm.092-14.714a6.359,6.359,0,0,0-.432,1.612c.006-.659-.05-1.336-.065-1.946-.057-2.283-.24-4.56-.515-6.826q.414-.235.841-.43a13.619,13.619,0,0,0,.379,2.292,2.849,2.849,0,0,0,1.371,2.1c.214.455-.122.925-.4,1.315A9.453,9.453,0,0,0,43.73,42.356Zm4.226-.08a2.089,2.089,0,0,0-1.8,2.636c.03.211.234.816.067,1-.224.247-.595-.1-.716-.274-.763-1.112.1-2.783.783-3.691a4.348,4.348,0,0,0,1.1-2.838c.289-.083.569-.177.817-.275a4.315,4.315,0,0,0,.918-.511c1.668,1.382,3.422,2.92,4.147,4.988a5.263,5.263,0,0,1,.179,3.277,2.389,2.389,0,0,1-.684,1.2.511.511,0,0,1-.206.114.384.384,0,0,1-.043-.013c-.2-.085-.278-.382-.331-.564-.177-.61-.136-1.264-.312-1.877a4.639,4.639,0,0,0-.817-1.578A3.772,3.772,0,0,0,47.956,42.276Z"/><path fill="#89C559" stroke="#000000" stroke-width="0.5" d="M35.484,47.012c0-.028,0-.055,0-.083,0,.013,0,.041,0,.083Z"/><path fill="#89C559" stroke="#000000" stroke-width="0.5" d="M28.35,19.573a.5.5,0,0,0,.146-.354l-.043-.8a.524.524,0,0,0-.147-.353.508.508,0,0,0-.353-.147.5.5,0,0,0-.5.5l.043.8a.528.528,0,0,0,.147.354.5.5,0,0,0,.707,0Z"/><path fill="#89C559" stroke="#000000" stroke-width="0.5" d="M34.274,19.675a.51.51,0,0,0,.354-.146.523.523,0,0,0,.146-.354v-.752a.519.519,0,0,0-.146-.354.5.5,0,0,0-.708,0,.523.523,0,0,0-.146.354v.752a.521.521,0,0,0,.146.354A.51.51,0,0,0,34.274,19.675Z"/><path stroke="#000000" stroke-width="0.5" d="M30.871,23.475a2.052,2.052,0,0,1,2.743.031.5.5,0,1,0,.707-.707,3.03,3.03,0,0,0-4.157-.031.5.5,0,1,0,.707.707Z" fill="#89C559"/></g></svg>