<svg xmlns="http://www.w3.org/2000/svg" data-name="Layer 1" viewBox="0 0 100 125" x="0px" y="0px"><title></title><path d="M70,18H30A12,12,0,0,0,18,30V70A12,12,0,0,0,30,82H70A12,12,0,0,0,82,70V30A12,12,0,0,0,70,18Zm0,56H30a4,4,0,0,1-4-4V30a4,4,0,0,1,4-4H70a4,4,0,0,1,4,4V46H47.66l6-6L48,34.34,35.17,47.17a4,4,0,0,0,0,5.66L48,65.66,53.66,60l-6-6H74V70A4,4,0,0,1,70,74Z"/><text x="0" y="115" fill="#000000" font-size="5px" font-weight="bold" font-family="'Helvetica Neue', Helvetica, Arial-Unicode, Arial, Sans-serif"></text><text x="0" y="120" fill="#000000" font-size="5px" font-weight="bold" font-family="'Helvetica Neue', Helvetica, Arial-Unicode, Arial, Sans-serif"></text></svg>