<svg xmlns="http://www.w3.org/2000/svg" xmlns:xlink="http://www.w3.org/1999/xlink" xml:space="preserve" version="1.1" style="shape-rendering:geometricPrecision;text-rendering:geometricPrecision;image-rendering:optimizeQuality;" viewBox="0 0 846.66 1058.325" x="0px" y="0px" fill-rule="evenodd" clip-rule="evenodd"><defs><style type="text/css">
   
    .fil0 {fill:#88C558;fill-rule:nonzero}
   
  </style></defs><g><path class="fil0" d="M187.47 580.57l337.37 0c48.55,0 76.62,31.27 84.25,67.45l50.59 0c115.17,0 115.17,176.03 0,176.03l-337.37 0c-48.81,0 -77.04,-31.27 -84.71,-67.45l-50.13 0c-115.81,0 -115.81,-176.03 0,-176.03zm440.93 -152.28c-2.54,-79.99 -35.55,-115.54 5.08,-170.14 0,0 -52.7,1.91 -69.2,40.63 0,0 11.43,-109.82 -33.65,-130.14 0,0 -10.79,37.46 -32.37,48.89 0,0 -7.62,-165.06 -137.13,-194.9 0,0 45.08,85.06 -1.9,144.73 -46.98,59.68 -43.17,70.47 -43.17,70.47 0,0 -26.66,-15.87 -30.47,-44.44 0,0 -55.23,76.18 8.88,158.07 0,0 -57.13,-1.27 -75.54,-49.52 -42.89,320.26 415.05,302.25 409.47,126.35zm-70.19 219.73c-5.95,-10.79 -17.07,-18.69 -33.37,-18.69l-337.37 0c-51.62,0 -51.62,78.51 0,78.51l52.08 0c9.84,-32.83 37.42,-59.82 82.76,-59.82l235.9 0zm101.47 48.76l-337.37 0c-51.62,0 -51.62,78.51 0,78.51l337.37 0c51.37,0 51.37,-78.51 0,-78.51z"/></g></svg>